<?xml version="1.0" encoding="utf-8"?>
<!-- Generator: Adobe Illustrator 16.2.1, SVG Export Plug-In . SVG Version: 6.00 Build 0)  -->
<!DOCTYPE svg PUBLIC "-//W3C//DTD SVG 1.1//EN" "http://www.w3.org/Graphics/SVG/1.1/DTD/svg11.dtd">
<svg version="1.1" id="Layer_1" xmlns="http://www.w3.org/2000/svg" xmlns:xlink="http://www.w3.org/1999/xlink" x="0px" y="0px"
	 width="30px" height="30px" viewBox="0 0 30 30" enable-background="new 0 0 30 30" xml:space="preserve">
<path fill="#58595B" d="M29.57,14.682c0-0.612-0.29-1.119-0.875-1.214c-0.132-4.991-1.319-9.642-3.38-7.745
	C20.74,9.939,13.451,9.706,11.888,9.706H3.087c-1.948,0-2.829,1.221-2.829,2.83v3.911c0,1.563,1.267,2.113,2.829,2.113l1.439,0.064
	c0,0-0.025,3.497,0.683,5.267c0.708,1.767,0.428,1.552,1.232,2.684c1.021,1.441,1.572,1.415,3.771,1.415h1.344
	c1.562,0,2.355-1.413,1.118-2.672c-2.829-2.882-2.459-6.693-2.459-6.693s10.876-0.304,15.189,4.965
	c1.88,2.295,3.128-2.534,3.286-7.691C29.278,15.804,29.57,15.297,29.57,14.682z M26.913,21.854c-0.166,0.484-0.39,0.924-0.639,0.926
	c-0.352,0.002-0.687-0.666-1.228-1.132c-1.262-1.088-2.978-1.936-5.064-2.543c-2.311-0.673-4.726-1.051-6.16-1.215l0.006-7.373
	c1.584-0.054,3.931-0.247,6.154-0.779c1.988-0.476,3.96-1.513,5.17-2.613c0.34-0.307,0.71-0.764,1.01-0.725
	c0.278,0.035,0.347,0.31,0.463,0.63c0.473,1.31,1.024,4.421,1.02,7.301C27.64,17.109,27.415,20.395,26.913,21.854z"/>
</svg>
