<?xml version="1.0" encoding="utf-8"?>
<!-- Generator: Adobe Illustrator 16.2.1, SVG Export Plug-In . SVG Version: 6.00 Build 0)  -->
<!DOCTYPE svg PUBLIC "-//W3C//DTD SVG 1.1//EN" "http://www.w3.org/Graphics/SVG/1.1/DTD/svg11.dtd">
<svg version="1.1" id="Layer_1" xmlns="http://www.w3.org/2000/svg" xmlns:xlink="http://www.w3.org/1999/xlink" x="0px" y="0px"
	 width="30px" height="30px" viewBox="0 0 30 30" enable-background="new 0 0 30 30" xml:space="preserve">
<g>
	<path fill="#58595B" d="M6.649,15.426v3.362c0,2.194,3.68,3.363,8.219,3.363c4.539,0,8.218-1.169,8.218-3.363v-3.189l-7.403,2.99
		L6.649,15.426z"/>
	<path fill="#58595B" d="M29.654,11.656c0.002-0.02-0.021-0.034-0.021-0.034l-15.06-4.119c0,0-0.031-0.005-0.058-0.005
		c-0.032,0-0.052,0.006-0.052,0.006L0.17,11.79c0,0-0.049,0.032-0.049,0.055S0.174,11.9,0.174,11.9l15.093,5.285
		c0,0,0.232,0.083,0.406,0.083s0.345-0.073,0.345-0.073l9.429-3.809l0.464,1.39c-0.277,0.176-0.462,0.485-0.462,0.839
		c0,0.299,0.133,0.568,0.343,0.75c0,0,0.035,1.469,0.035,3.202c0,1.732-0.378,3.388-0.378,3.388h2.675c0,0-0.51-1.574-0.863-3.404
		c-0.204-1.055-0.378-3.047-0.378-3.047c0.326-0.162,0.552-0.499,0.552-0.889c0-0.497-0.363-0.906-0.84-0.98l-0.505-1.508
		l3.545-1.432C29.634,11.695,29.653,11.676,29.654,11.656z"/>
</g>
</svg>
