<?xml version="1.0" encoding="utf-8"?>
<!-- Generator: Adobe Illustrator 16.2.1, SVG Export Plug-In . SVG Version: 6.00 Build 0)  -->
<!DOCTYPE svg PUBLIC "-//W3C//DTD SVG 1.1//EN" "http://www.w3.org/Graphics/SVG/1.1/DTD/svg11.dtd">
<svg version="1.1" id="Layer_1" xmlns="http://www.w3.org/2000/svg" xmlns:xlink="http://www.w3.org/1999/xlink" x="0px" y="0px"
	 width="30px" height="30px" viewBox="0 0 30 30" enable-background="new 0 0 30 30" xml:space="preserve">
<path fill="#58595B" d="M29.164,26.427L29.164,26.427c0,0-17.755-17.887-18.545-18.677c-0.79-0.79-1.644-2.988-2.112-3.859
	c-0.409-0.669-1.183-1.403-2.732-1.52C3.047,2.165,0.63,4.467,0.63,4.467l4.743,0.767c0,0,0.715,1.141,0.58,2.188
	C5.816,8.47,4.76,9.682,4.76,9.682L0.06,9.253c0,0,0.479,1.179,1.593,2.108c0.848,0.707,2.283,1.175,3.718,1.056
	c0.961-0.08,1.509-0.176,2.239-0.648c0.518-0.335,1.602,0.008,2.767,1.173c1.532,1.531,16.324,15.934,16.331,15.943
	c0.68,0.679,1.779,0.679,2.458,0C29.844,28.206,29.843,27.105,29.164,26.427z M27.3,28.291c-0.351-0.351-0.351-0.92,0-1.271
	c0.352-0.351,0.92-0.351,1.271,0c0.352,0.352,0.352,0.921,0,1.271S27.651,28.642,27.3,28.291z"/>
</svg>
